<svg width="170" height="54" viewBox="0 0 170 54" fill="none" xmlns="http://www.w3.org/2000/svg">
<path d="M50.1539 26.7735L41.9812 14.6956L48.9734 4.39919L30.7512 0.00585938L23.0931 5.16918L23.3807 6.7695L31.0086 5.00308L30.6453 2.52719L44.7962 5.93917L39.6807 13.5029H23.4261L16.7517 3.47827L4.94666 11.4497L0.436523 17.9717L1.54136 19.723L7.74657 15.5259L6.42985 13.5784L16.0555 7.07145L21.3375 14.8919L11.7724 21.3233L11.7422 32.133L13.074 33.7485V41.7953L20.5353 52.7862L19.5062 40.4517L22.7753 41.2368L22.2455 53.2844L32.3859 46.2943L32.3706 42.5502L39.4386 42.6106L50.1539 26.7735ZM33.5058 16.1298L39.8321 16.145L45.0687 23.8899L39.8623 22.6368L32.401 29.174L32.4161 21.9574L30.0702 18.4699L33.5058 16.1298ZM23.6683 16.0393L29.5405 16.0544L25.4087 18.8171L19.6121 18.8021L23.6683 16.0393ZM15.8284 21.3988L26.892 21.4291L22.5029 27.9208L20.8986 25.5355L19.3094 27.8302L15.2231 21.8064L15.8284 21.3988ZM20.8835 34.8052L19.2792 37.1151L14.3453 29.959V25.0826L19.3397 32.5558L20.9137 30.2307L22.4574 32.5104L29.4951 22.3197L29.8129 22.7878L29.7978 31.4688L22.7904 37.6133L20.8835 34.8052ZM30.6604 39.9837L28.2691 36.4509H32.7642L35.1554 39.9987L30.6604 39.9837ZM38.1975 39.8175L34.9889 35.0469L41.6936 25.4449L47.0362 26.7584L38.1975 39.8175Z" fill="url(#paint0_diamond_302_163)"/>
<path d="M64.038 15.4885L66.3902 28.5391L68.7885 15.4885H72.0169L74.3998 28.5391L76.7674 15.5192H79.9958L76.014 37.7865H72.7856L70.4181 24.4906L68.0352 37.7865H64.8067L60.8096 15.4885H64.038Z" fill="white"/>
<path d="M83.1162 15.5191H92.6939V18.7089H86.3139V25.0732H91.0953V28.263H86.3139V34.6119H92.6939V37.8018H83.1162V15.5191Z" fill="white"/>
<path d="M96.6911 15.5497H103.072C103.948 15.5497 104.685 15.8565 105.301 16.4699C105.915 17.0833 106.223 17.8348 106.223 18.7242V25.4719C106.223 25.7939 106.1 26.0699 105.87 26.3C105.639 26.5301 105.362 26.6527 105.039 26.6527V26.6834C105.362 26.6834 105.639 26.8061 105.87 27.0361C106.1 27.2661 106.223 27.5422 106.223 27.8643V34.6426C106.223 35.5167 105.915 36.2528 105.301 36.8662C104.685 37.4797 103.933 37.7863 103.072 37.7863H96.6911V15.5497ZM99.8587 18.7089V25.1039H101.873C102.211 25.1039 102.503 24.9812 102.734 24.7511C102.963 24.5211 103.087 24.2297 103.087 23.8923V19.9204C103.087 19.583 102.963 19.2917 102.734 19.0616C102.503 18.8315 102.211 18.7089 101.873 18.7089H99.8587ZM99.8587 28.263V34.6426H101.873C102.211 34.6426 102.503 34.5199 102.734 34.2899C102.963 34.0599 103.087 33.7685 103.087 33.4311V29.4592C103.087 29.1217 102.963 28.8304 102.734 28.6003C102.503 28.3703 102.211 28.263 101.873 28.263H99.8587Z" fill="white"/>
<path d="M113.095 31.4221V33.017C113.095 33.4618 113.249 33.8452 113.556 34.1366C113.864 34.4432 114.248 34.5966 114.694 34.5966C115.14 34.5966 115.524 34.4432 115.816 34.1366C116.124 33.8298 116.277 33.4618 116.277 33.017V29.8272C116.277 29.3825 116.124 28.9991 115.816 28.7078C115.509 28.401 115.14 28.2476 114.694 28.2476C113.264 28.2323 112.065 27.7109 111.112 26.6527C110.297 25.7479 109.897 24.6744 109.897 23.4629V20.3038C109.897 18.9849 110.374 17.8654 111.312 16.93C112.25 15.9945 113.388 15.5191 114.694 15.5191C116.016 15.5191 117.138 15.9945 118.076 16.93C119.014 17.8654 119.476 19.0002 119.476 20.3038V21.8833H116.293V20.3038C116.293 19.8591 116.139 19.4757 115.832 19.169C115.524 18.8622 115.155 18.7089 114.709 18.7089C114.263 18.7089 113.879 18.8622 113.572 19.169C113.264 19.4757 113.111 19.8591 113.111 20.3038V23.4782C113.111 23.923 113.264 24.3064 113.572 24.6131C113.879 24.9198 114.263 25.0732 114.709 25.0732C116.124 25.0732 117.323 25.5946 118.276 26.6527C119.091 27.5575 119.49 28.631 119.49 29.8425V33.0324C119.49 34.3512 119.029 35.4707 118.092 36.4062C117.154 37.3417 116.032 37.8018 114.709 37.8018C113.388 37.8018 112.265 37.3417 111.327 36.4062C110.39 35.4707 109.913 34.3512 109.913 33.0324V31.4375H113.095V31.4221Z" fill="white"/>
<path d="M121.551 15.5191H131.113V18.7089H127.93V37.8018H124.748V18.7089H121.551V15.5191Z" fill="white"/>
<path d="M133.818 15.5191H143.396V18.7089H137.016V25.0732H141.798V28.263H137.016V34.6119H143.396V37.8018H133.818V15.5191Z" fill="white"/>
<path d="M146.762 15.5497L153.142 15.5804C154.019 15.5804 154.757 15.8871 155.372 16.5006C155.987 17.114 156.294 17.8654 156.294 18.7242V25.1039C156.294 26.3153 155.771 27.2202 154.726 27.8336L156.294 37.7863H153.142L151.559 28.2477H149.914V37.7863H146.748V15.5497H146.762ZM149.914 18.7089V25.1345H151.928C152.266 25.1345 152.558 25.0118 152.789 24.7664C153.02 24.5211 153.142 24.245 153.142 23.923V19.9511C153.142 19.6137 153.02 19.3223 152.789 19.0769C152.558 18.8315 152.266 18.7089 151.928 18.7089H149.914Z" fill="white"/>
<path d="M169.424 15.5497V18.7089L163.044 34.6426H169.424V37.8018H159.892V34.6426L166.256 18.7089H159.892V15.5191L169.424 15.5497Z" fill="white"/>
<defs>
<radialGradient id="paint0_diamond_302_163" cx="0" cy="0" r="1" gradientUnits="userSpaceOnUse" gradientTransform="translate(51.9561 5.59276) rotate(150.31) scale(59.305 94.3189)">
<stop stop-color="#FF7A00"/>
<stop offset="0.125" stop-color="#FFB300"/>
<stop offset="0.349158" stop-color="#FFD05F"/>
<stop offset="0.40166" stop-color="#FFD264"/>
<stop offset="0.480707" stop-color="#FFD368"/>
<stop offset="0.651371" stop-color="#FFB300"/>
<stop offset="0.830067" stop-color="#FF961C"/>
<stop offset="1" stop-color="#FF9900"/>
</radialGradient>
</defs>
</svg>
