<svg width="51" height="54" viewBox="0 0 51 54" fill="none" xmlns="http://www.w3.org/2000/svg">
<path d="M50.1539 26.7735L41.9812 14.6956L48.9734 4.39919L30.7512 0.00585938L23.0931 5.16918L23.3807 6.7695L31.0086 5.00308L30.6453 2.52719L44.7962 5.93917L39.6807 13.5029H23.4261L16.7517 3.47827L4.94666 11.4497L0.436523 17.9717L1.54136 19.723L7.74657 15.5259L6.42985 13.5784L16.0555 7.07145L21.3375 14.8919L11.7724 21.3233L11.7422 32.133L13.074 33.7485V41.7953L20.5353 52.7862L19.5062 40.4517L22.7753 41.2368L22.2455 53.2844L32.3859 46.2943L32.3706 42.5502L39.4386 42.6106L50.1539 26.7735ZM33.5058 16.1298L39.8321 16.145L45.0687 23.8899L39.8623 22.6368L32.401 29.174L32.4161 21.9574L30.0702 18.4699L33.5058 16.1298ZM23.6683 16.0393L29.5405 16.0544L25.4087 18.8171L19.6121 18.8021L23.6683 16.0393ZM15.8284 21.3988L26.892 21.4291L22.5029 27.9208L20.8986 25.5355L19.3094 27.8302L15.2231 21.8064L15.8284 21.3988ZM20.8835 34.8052L19.2792 37.1151L14.3453 29.959V25.0826L19.3397 32.5558L20.9137 30.2307L22.4574 32.5104L29.4951 22.3197L29.8129 22.7878L29.7978 31.4688L22.7904 37.6133L20.8835 34.8052ZM30.6604 39.9837L28.2691 36.4509H32.7642L35.1554 39.9987L30.6604 39.9837ZM38.1975 39.8176L34.9889 35.0469L41.6936 25.4449L47.0362 26.7584L38.1975 39.8176Z" fill="url(#paint0_diamond_302_164)"/>
<defs>
<radialGradient id="paint0_diamond_302_164" cx="0" cy="0" r="1" gradientUnits="userSpaceOnUse" gradientTransform="translate(51.9561 5.59276) rotate(150.31) scale(59.305 94.3189)">
<stop stop-color="#FF7A00"/>
<stop offset="0.125" stop-color="#FFB300"/>
<stop offset="0.349158" stop-color="#FFD05F"/>
<stop offset="0.40166" stop-color="#FFD264"/>
<stop offset="0.480707" stop-color="#FFD368"/>
<stop offset="0.651371" stop-color="#FFB300"/>
<stop offset="0.830067" stop-color="#FF961C"/>
<stop offset="1" stop-color="#FF9900"/>
</radialGradient>
</defs>
</svg>
