<svg width="180" height="164" viewBox="0 0 180 164" fill="none" xmlns="http://www.w3.org/2000/svg">
<path d="M5.35035 126.829L9.24845 148.499L13.223 126.829H18.5734L22.5224 148.499L26.446 126.879H31.7963L25.1975 163.854H19.8472L15.9236 141.776L11.9746 163.854H6.62423L0 126.829H5.35035Z" fill="white"/>
<path d="M36.9678 126.879H52.8405V132.176H42.2672V142.744H50.1908V148.041H42.2672V158.583H52.8405V163.879H36.9678V126.879Z" fill="white"/>
<path d="M59.4658 126.93H70.0391C71.4913 126.93 72.7143 127.44 73.7334 128.458C74.7525 129.477 75.2621 130.725 75.2621 132.202V143.406C75.2621 143.941 75.0582 144.399 74.6761 144.781C74.2939 145.163 73.8353 145.367 73.3002 145.367V145.417C73.8353 145.417 74.2939 145.622 74.6761 146.003C75.0582 146.385 75.2621 146.844 75.2621 147.379V158.634C75.2621 160.085 74.7525 161.307 73.7334 162.326C72.7143 163.344 71.4658 163.854 70.0391 163.854H59.4658V126.93ZM64.7142 132.177V142.795H68.0518C68.6124 142.795 69.0964 142.591 69.4786 142.209C69.8607 141.827 70.0646 141.343 70.0646 140.783V134.188C70.0646 133.628 69.8607 133.144 69.4786 132.762C69.0964 132.38 68.6124 132.177 68.0518 132.177H64.7142ZM64.7142 148.04V158.634H68.0518C68.6124 158.634 69.0964 158.43 69.4786 158.048C69.8607 157.666 70.0646 157.183 70.0646 156.622V150.027C70.0646 149.466 69.8607 148.983 69.4786 148.6C69.0964 148.219 68.6124 148.04 68.0518 148.04H64.7142Z" fill="white"/>
<path d="M86.65 153.286V155.934C86.65 156.672 86.9048 157.31 87.4143 157.793C87.9238 158.303 88.5609 158.557 89.2997 158.557C90.0386 158.557 90.6755 158.303 91.1595 157.793C91.6692 157.284 91.9239 156.672 91.9239 155.934V150.638C91.9239 149.899 91.6692 149.262 91.1595 148.779C90.65 148.269 90.0386 148.014 89.2997 148.014C86.9303 147.989 84.943 147.123 83.3634 145.366C82.013 143.864 81.3506 142.081 81.3506 140.069V134.824C81.3506 132.634 82.1404 130.775 83.6946 129.222C85.2487 127.668 87.1341 126.879 89.2997 126.879C91.4907 126.879 93.3506 127.668 94.9044 129.222C96.4587 130.775 97.2237 132.66 97.2237 134.824V137.447H91.9494V134.824C91.9494 134.086 91.6946 133.449 91.185 132.94C90.6755 132.43 90.0641 132.176 89.3251 132.176C88.5863 132.176 87.9493 132.43 87.4398 132.94C86.9303 133.449 86.6755 134.086 86.6755 134.824V140.096C86.6755 140.834 86.9303 141.47 87.4398 141.98C87.9493 142.489 88.5863 142.744 89.3251 142.744C91.6691 142.744 93.6564 143.61 95.2362 145.366C96.5862 146.868 97.249 148.652 97.249 150.663V155.959C97.249 158.15 96.484 160.008 94.9306 161.562C93.3761 163.115 91.5162 163.879 89.3251 163.879C87.1341 163.879 85.2742 163.115 83.72 161.562C82.1659 160.008 81.3761 158.15 81.3761 155.959V153.311H86.65V153.286Z" fill="white"/>
<path d="M100.664 126.879H116.511V132.176H111.237V163.879H105.963V132.176H100.664V126.879Z" fill="white"/>
<path d="M120.994 126.879H136.867V132.176H126.293V142.744H134.217V148.041H126.293V158.583H136.867V163.879H120.994V126.879Z" fill="white"/>
<path d="M142.445 126.93L153.019 126.982C154.471 126.982 155.694 127.491 156.713 128.509C157.732 129.528 158.242 130.776 158.242 132.202V142.795C158.242 144.806 157.376 146.309 155.643 147.328L158.242 163.854H153.019L150.394 148.015H147.669V163.854H142.42V126.93H142.445ZM147.669 132.177V142.845H151.006C151.567 142.845 152.051 142.642 152.433 142.234C152.815 141.827 153.019 141.369 153.019 140.834V134.239C153.019 133.679 152.815 133.195 152.433 132.787C152.051 132.38 151.567 132.177 151.006 132.177H147.669Z" fill="white"/>
<path d="M180 126.93V132.176L169.427 158.634H180V163.879H164.203V158.634L174.751 132.176H164.203V126.879L180 126.93Z" fill="white"/>
<path d="M129.599 55.2978L112.749 30.3467L127.166 9.07597L89.5947 0L73.8049 10.6665L74.3978 13.9726L90.1251 10.3235L89.3763 5.20855L118.553 12.2572L108.006 27.8828H74.4914L60.7299 7.17346L36.39 23.6412L27.0908 37.1147L29.3689 40.7326L42.1629 32.0621L39.4481 28.0387L59.2945 14.5964L70.1851 30.7522L50.4634 44.0387L50.4011 66.3698L53.1471 69.7071V86.3312L68.5312 109.036L66.4093 83.5549L73.1496 85.1768L72.0575 110.066L92.9648 95.6254L92.9336 87.8904L107.506 88.015L129.599 55.2978ZM95.2737 33.3097L108.318 33.3409L119.114 49.3408L108.38 46.7521L92.9961 60.2569L93.0273 45.3486L88.1904 38.144L95.2737 33.3097ZM74.9907 33.1226L87.0982 33.1537L78.5793 38.8613L66.6277 38.8301L74.9907 33.1226ZM58.8264 44.1946L81.6374 44.257L72.5879 57.6682L69.2802 52.7403L66.0036 57.4811L57.5782 45.0367L58.8264 44.1946ZM69.249 71.8903L65.9412 76.6622L55.7684 61.8787V51.8047L66.0661 67.2431L69.3113 62.4401L72.4943 67.1496L87.0047 46.0971L87.66 47.064L87.6288 64.9976L73.1808 77.6915L69.249 71.8903ZM89.4075 82.5881L84.4771 75.2899H93.745L98.675 82.6193L89.4075 82.5881ZM104.948 82.245L98.3318 72.3893L112.156 52.5532L123.172 55.2666L104.948 82.245Z" fill="url(#paint0_diamond_149_4)"/>
<defs>
<radialGradient id="paint0_diamond_149_4" cx="0" cy="0" r="1" gradientUnits="userSpaceOnUse" gradientTransform="translate(133.315 11.5417) rotate(150.262) scale(122.335 194.756)">
<stop stop-color="#FF7A00"/>
<stop offset="0.125" stop-color="#FFB300"/>
<stop offset="0.349158" stop-color="#FFD05F"/>
<stop offset="0.40166" stop-color="#FFD264"/>
<stop offset="0.480707" stop-color="#FFD368"/>
<stop offset="0.651371" stop-color="#FFB300"/>
<stop offset="0.830067" stop-color="#FF961C"/>
<stop offset="1" stop-color="#FF9900"/>
</radialGradient>
</defs>
</svg>
